<svg width="32" height="32" viewBox="0 0 32 32" fill="none" xmlns="http://www.w3.org/2000/svg">
<g clip-path="url(#clip0)">
<rect width="32" height="32" fill="white"/>
<g clip-path="url(#clip1)">
<rect x="-0.730865" width="32.7309" height="32" fill="#FFE073"/>
<path d="M22.0191 11.9531C22.0191 12.8281 21.8525 13.6562 21.5191 14.4375C21.1858 15.2083 20.7275 15.8802 20.1441 16.4531C19.5712 17.026 18.8941 17.4792 18.1129 17.8125C17.3421 18.1458 16.5139 18.3125 15.6285 18.3125C14.8368 18.3125 14.0764 18.1771 13.3473 17.9062C12.6181 17.625 11.9566 17.2188 11.3629 16.6875C10.7796 17.2188 10.1233 17.625 9.39413 17.9062C8.67538 18.1771 7.91497 18.3125 7.11288 18.3125C6.22747 18.3125 5.39934 18.1458 4.62851 17.8125C3.85768 17.4792 3.18059 17.026 2.59726 16.4531C2.02434 15.8802 1.57122 15.2083 1.23788 14.4375C0.904551 13.6562 0.737885 12.8281 0.737885 11.9531V1.29688H5.00351V11.9531C5.00351 12.2448 5.05559 12.5208 5.15976 12.7812C5.27434 13.0312 5.42538 13.2552 5.61288 13.4531C5.8108 13.6406 6.03476 13.7917 6.28476 13.9062C6.54518 14.0104 6.82122 14.0625 7.11288 14.0625C7.40455 14.0625 7.68059 14.0104 7.94101 13.9062C8.20143 13.7917 8.43059 13.6406 8.62851 13.4531C8.82643 13.2552 8.97747 13.0312 9.08163 12.7812C9.19622 12.5208 9.25351 12.2448 9.25351 11.9531V1.29688H13.5035V11.9531C13.5035 12.2448 13.5608 12.5208 13.6754 12.7812C13.79 13.0312 13.941 13.2552 14.1285 13.4531C14.3264 13.6406 14.5504 13.7917 14.8004 13.9062C15.0608 14.0104 15.3368 14.0625 15.6285 14.0625C15.9202 14.0625 16.1962 14.0104 16.4566 13.9062C16.7171 13.7917 16.941 13.6406 17.1285 13.4531C17.3264 13.2552 17.4827 13.0312 17.5973 12.7812C17.7118 12.5208 17.7691 12.2448 17.7691 11.9531V1.29688H22.0191V11.9531Z" fill="black"/>
<path d="M25.7896 30H18.4771V26.8125H25.7896C26.0084 26.8125 26.1959 26.7344 26.3521 26.5781C26.5084 26.4219 26.5865 26.2344 26.5865 26.0156C26.5865 25.7891 26.5084 25.6406 26.3521 25.5703C26.1959 25.5 26.0084 25.4648 25.7896 25.4648H22.4615C21.9068 25.4648 21.3873 25.3594 20.9029 25.1484C20.4185 24.9375 19.9967 24.6523 19.6373 24.293C19.2779 23.9258 18.9928 23.5 18.7818 23.0156C18.5787 22.5312 18.4771 22.0117 18.4771 21.457C18.4771 20.9023 18.5787 20.3828 18.7818 19.8984C18.9928 19.4141 19.2779 18.9922 19.6373 18.6328C19.9967 18.2734 20.4185 17.9922 20.9029 17.7891C21.3873 17.5781 21.9068 17.4727 22.4615 17.4727H28.942V20.6602H22.4615C22.2428 20.6602 22.0553 20.7383 21.899 20.8945C21.7428 21.0508 21.6646 21.2383 21.6646 21.457C21.6646 21.6836 21.7428 21.8789 21.899 22.043C22.0553 22.1992 22.2428 22.2773 22.4615 22.2773H25.7896C26.3365 22.2773 26.8521 22.3711 27.3365 22.5586C27.8209 22.7383 28.2428 22.9922 28.6021 23.3203C28.9615 23.6484 29.2467 24.043 29.4576 24.5039C29.6685 24.9648 29.774 25.4688 29.774 26.0156C29.774 26.5703 29.6685 27.0898 29.4576 27.5742C29.2467 28.0508 28.9615 28.4727 28.6021 28.8398C28.2428 29.1992 27.8209 29.4844 27.3365 29.6953C26.8521 29.8984 26.3365 30 25.7896 30Z" fill="black"/>
<path d="M15.3839 20.4465L8.11215 31.5132L1.93198 20.2176L15.3839 20.4465Z" fill="#CE2525"/>
<rect x="23.8173" width="6.13704" height="14" fill="#CE2525"/>
</g>
</g>
<defs>
<clipPath id="clip0">
<rect width="32" height="32" fill="white"/>
</clipPath>
<clipPath id="clip1">
<rect width="34" height="50" fill="white" transform="translate(-2 -14)"/>
</clipPath>
</defs>
</svg>
